<svg width="570.9599975585937px" height="122.39999389648438px" xmlns="http://www.w3.org/2000/svg" viewBox="-35.479998779296864 13.800003051757812 570.9599975585937 122.39999389648438" style="background: none;" preserveAspectRatio="xMidYMid"><defs><filter id="editing-extrusion" x="-100%" y="-100%" width="300%" height="300%"><feFlood result="color1" flood-color="#444"></feFlood><feConvolveMatrix order="8,8" divisor="1" kernelMatrix="1 0 0 0 0 0 0 0 0 1 0 0 0 0 0 0 0 0 1 0 0 0 0 0 0 0 0 1 0 0 0 0 0 0 0 0 1 0 0 0 0 0 0 0 0 1 0 0 0 0 0 0 0 0 1 0 0 0 0 0 0 0 0 1" in="SourceAlpha" result="extrude"></feConvolveMatrix><feComposite in="color1" in2="extrude" result="comp-extrude" operator="in"></feComposite><feOffset dx="4" dy="4" in="comp-extrude" result="offset-extrude"></feOffset><feMerge><feMergeNode in="offset-extrude"></feMergeNode><feMergeNode in="SourceGraphic"></feMergeNode></feMerge></filter></defs><g filter="url(#editing-extrusion)"><g transform="translate(51.83088541030884, 104.1200008392334)"><path d="M6.21-31.17L6.21-31.17L6.21-31.17Q4.03-32.83 4.03-36.38L4.03-36.38L4.03-36.38Q4.03-39.94 6.37-41.79L6.37-41.79L6.37-41.79Q8.70-43.65 12.74-43.65L12.74-43.65L12.74-43.65Q15.30-43.65 21.38-42.75L21.38-42.75L25.73-42.11L25.73-42.11Q27.90-41.86 30.18-41.86L30.18-41.86L30.18-41.86Q32.45-41.86 33.98-42.82L33.98-42.82L33.98-42.82Q36.29-40.77 36.29-37.82L36.29-37.82L36.29-37.82Q36.29-34.88 33.66-32.77L33.66-32.77L33.66-32.77Q30.98-30.53 27.52-30.53L27.52-30.53L27.52-30.53Q25.86-30.53 23.17-30.98L23.17-30.98L23.17-30.98Q20.03-21.12 20.03-14.27L20.03-14.27L20.03-14.27Q20.03-7.42 23.49-3.84L23.49-3.84L23.49-3.84Q21.89-0.96 19.52 0.16L19.52 0.16L19.52 0.16Q17.15 1.28 13.60 1.28L13.60 1.28L13.60 1.28Q10.05 1.28 7.84-0.67L7.84-0.67L7.84-0.67Q5.63-2.62 5.63-6.66L5.63-6.66L5.63-6.66Q5.63-11.33 8.19-19.01L8.19-19.01L8.19-19.01Q10.75-26.62 14.59-32.45L14.59-32.45L14.59-32.45Q12.74-32.64 10.82-32.64L10.82-32.64L10.82-32.64Q6.85-32.64 6.21-31.17ZM66.43-7.10L66.43-7.10L66.43-7.10Q66.43-4.29 69.31-3.46L69.31-3.46L69.31-3.46Q68.61-1.09 65.86 0.19L65.86 0.19L65.86 0.19Q63.55 1.28 61.02 1.28L61.02 1.28L61.02 1.28Q58.50 1.28 57.18 0.61L57.18 0.61L57.18 0.61Q55.87-0.06 55.17-1.15L55.17-1.15L55.17-1.15Q54.02-2.82 54.02-5.95L54.02-5.95L54.02-5.95Q54.02-7.81 55.04-12.93L55.04-12.93L55.94-17.79L55.94-17.79Q57.02-23.36 57.02-25.41L57.02-25.41L57.02-25.41Q57.02-28.99 55.04-28.99L55.04-28.99L55.04-28.99Q52.54-28.99 50.94-25.34L50.94-25.34L50.94-25.34Q50.30-23.94 49.86-21.82L49.86-21.82L45.50 0L32.64 1.28L41.66-44.80L54.53-46.08L54.02-43.52L54.02-43.52Q52.22-33.66 50.69-30.34L50.69-30.34L50.69-30.34Q54.27-33.92 60.86-33.92L60.86-33.92L60.86-33.92Q67.84-33.92 69.12-29.31L69.12-29.31L69.12-29.31Q69.57-27.84 69.57-26.56L69.57-26.56L69.57-26.56Q69.57-25.28 69.47-24.29L69.47-24.29L69.47-24.29Q69.38-23.30 69.06-21.50L69.06-21.50L68.22-16.90L66.75-9.66L66.75-9.66Q66.43-8.19 66.43-7.10ZM94.53-17.98L94.53-17.98L94.53-17.98Q96.83-22.08 96.83-26.24L96.83-26.24L96.83-26.24Q96.83-28.99 94.85-28.99L94.85-28.99L94.85-28.99Q93.31-28.99 91.71-26.37L91.71-26.37L91.71-26.37Q90.05-23.74 89.54-20.35L89.54-20.35L86.21 0L72.96 1.28L79.49-32.64L90.05-33.92L88.90-27.46L88.90-27.46Q92.03-33.92 99.07-33.92L99.07-33.92L99.07-33.92Q102.78-33.92 104.80-32L104.80-32L104.80-32Q106.82-30.08 106.82-26.14L106.82-26.14L106.82-26.14Q106.82-22.21 104.22-19.71L104.22-19.71L104.22-19.71Q101.63-17.22 97.22-17.22L97.22-17.22L97.22-17.22Q95.30-17.22 94.53-17.98ZM133.76-10.82L133.76-10.82L133.76-10.82Q135.36-9.73 135.36-7.33L135.36-7.33L135.36-7.33Q135.36-4.93 134.14-3.39L134.14-3.39L134.14-3.39Q132.93-1.86 130.94-0.83L130.94-0.83L130.94-0.83Q126.85 1.28 122.43 1.28L122.43 1.28L122.43 1.28Q118.02 1.28 115.42 0.32L115.42 0.32L115.42 0.32Q112.83-0.64 111.10-2.43L111.10-2.43L111.10-2.43Q107.71-5.82 107.71-12.03L107.71-12.03L107.71-12.03Q107.71-21.70 112.96-27.58L112.96-27.58L112.96-27.58Q118.59-33.92 128.38-33.92L128.38-33.92L128.38-33.92Q134.46-33.92 137.47-31.36L137.47-31.36L137.47-31.36Q139.71-29.44 139.71-26.30L139.71-26.30L139.71-26.30Q139.71-15.04 120.26-15.04L120.26-15.04L120.26-15.04Q120.00-13.38 120.00-11.97L120.00-11.97L120.00-11.97Q120.00-9.02 121.31-7.90L121.31-7.90L121.31-7.90Q122.62-6.78 125.06-6.78L125.06-6.78L125.06-6.78Q127.49-6.78 130.08-7.90L130.08-7.90L130.08-7.90Q132.67-9.02 133.76-10.82ZM120.70-17.79L120.70-17.79L120.70-17.79Q125.25-17.79 127.87-20.61L127.87-20.61L127.87-20.61Q130.50-23.30 130.50-27.58L130.50-27.58L130.50-27.58Q130.50-29.06 129.95-29.86L129.95-29.86L129.95-29.86Q129.41-30.66 128.32-30.66L128.32-30.66L128.32-30.66Q127.23-30.66 126.30-30.24L126.30-30.24L126.30-30.24Q125.38-29.82 124.42-28.42L124.42-28.42L124.42-28.42Q122.05-25.22 120.70-17.79ZM167.81-10.82L167.81-10.82L167.81-10.82Q169.41-9.73 169.41-7.33L169.41-7.33L169.41-7.33Q169.41-4.93 168.19-3.39L168.19-3.39L168.19-3.39Q166.98-1.86 164.99-0.83L164.99-0.83L164.99-0.83Q160.90 1.28 156.48 1.28L156.48 1.28L156.48 1.28Q152.06 1.28 149.47 0.32L149.47 0.32L149.47 0.32Q146.88-0.64 145.15-2.43L145.15-2.43L145.15-2.43Q141.76-5.82 141.76-12.03L141.76-12.03L141.76-12.03Q141.76-21.70 147.01-27.58L147.01-27.58L147.01-27.58Q152.64-33.92 162.43-33.92L162.43-33.92L162.43-33.92Q168.51-33.92 171.52-31.36L171.52-31.36L171.52-31.36Q173.76-29.44 173.76-26.30L173.76-26.30L173.76-26.30Q173.76-15.04 154.30-15.04L154.30-15.04L154.30-15.04Q154.05-13.38 154.05-11.97L154.05-11.97L154.05-11.97Q154.05-9.02 155.36-7.90L155.36-7.90L155.36-7.90Q156.67-6.78 159.10-6.78L159.10-6.78L159.10-6.78Q161.54-6.78 164.13-7.90L164.13-7.90L164.13-7.90Q166.72-9.02 167.81-10.82ZM154.75-17.79L154.75-17.79L154.75-17.79Q159.30-17.79 161.92-20.61L161.92-20.61L161.92-20.61Q164.54-23.30 164.54-27.58L164.54-27.58L164.54-27.58Q164.54-29.06 164-29.86L164-29.86L164-29.86Q163.46-30.66 162.37-30.66L162.37-30.66L162.37-30.66Q161.28-30.66 160.35-30.24L160.35-30.24L160.35-30.24Q159.42-29.82 158.46-28.42L158.46-28.42L158.46-28.42Q156.10-25.22 154.75-17.79ZM167.87 8.83L167.87 8.83L167.87 8.83Q171.14 8.45 173.18 4.22L173.18 4.22L173.18 4.22Q175.30-0.06 177.22-9.92L177.22-9.92L183.42-42.24L197.31-42.24L191.10-9.92L191.10-9.92Q188.74 2.62 184.83 7.55L184.83 7.55L184.83 7.55Q182.78 10.11 180.19 11.14L180.19 11.14L180.19 11.14Q177.60 12.16 174.78 12.16L174.78 12.16L174.78 12.16Q171.97 12.16 170.14 11.14L170.14 11.14L170.14 11.14Q168.32 10.11 167.87 8.83ZM217.86-22.46L217.86-22.46L217.86-22.46Q218.75-24.83 218.75-26.88L218.75-26.88L218.75-26.88Q218.75-30.66 215.68-30.66L215.68-30.66L215.68-30.66Q214.08-30.66 212.77-29.22L212.77-29.22L212.77-29.22Q211.46-27.78 211.46-25.98L211.46-25.98L211.46-25.98Q211.46-24.70 212.48-23.68L212.48-23.68L212.48-23.68Q213.95-22.27 217.73-19.97L217.73-19.97L217.73-19.97Q221.50-17.66 222.94-15.78L222.94-15.78L222.94-15.78Q224.38-13.89 224.38-11.30L224.38-11.30L224.38-11.30Q224.38-8.70 223.14-6.34L223.14-6.34L223.14-6.34Q221.89-3.97 219.65-2.30L219.65-2.30L219.65-2.30Q214.85 1.28 207.17 1.28L207.17 1.28L207.17 1.28Q203.01 1.28 199.81-0.90L199.81-0.90L199.81-0.90Q196.61-3.01 196.61-5.50L196.61-5.50L196.61-5.50Q196.61-8 198.43-9.47L198.43-9.47L198.43-9.47Q200.26-10.94 202.94-10.94L202.94-10.94L202.94-10.94Q205.63-10.94 207.30-9.92L207.30-9.92L207.30-9.92Q206.46-7.81 206.46-6.40L206.46-6.40L206.46-6.40Q206.46-2.18 210.05-2.18L210.05-2.18L210.05-2.18Q211.58-2.18 212.61-3.14L212.61-3.14L212.61-3.14Q213.63-4.10 213.63-5.76L213.63-5.76L213.63-5.76Q213.63-9.02 208.13-12.48L208.13-12.48L208.13-12.48Q203.65-15.42 202.62-16.58L202.62-16.58L202.62-16.58Q200.90-18.62 200.90-21.18L200.90-21.18L200.90-21.18Q200.90-23.74 202.11-26.18L202.11-26.18L202.11-26.18Q203.33-28.61 205.57-30.34L205.57-30.34L205.57-30.34Q210.24-33.92 218.37-33.92L218.37-33.92L218.37-33.92Q222.53-33.92 224.99-32.26L224.99-32.26L224.99-32.26Q227.46-30.59 227.46-27.78L227.46-27.78L227.46-27.78Q227.46-24.96 225.76-23.36L225.76-23.36L225.76-23.36Q224.06-21.76 220.99-21.76L220.99-21.76L220.99-21.76Q218.88-21.76 217.86-22.46ZM267.97-29.57L267.97-29.57L267.97-29.57Q268.93-31.49 268.93-33.28L268.93-33.28L268.93-33.28Q268.93-35.07 268.74-36.06L268.74-36.06L268.74-36.06Q268.54-37.06 268.10-37.82L268.10-37.82L268.10-37.82Q267.14-39.49 265.22-39.49L265.22-39.49L265.22-39.49Q262.85-39.49 260.93-37.76L260.93-37.76L260.93-37.76Q258.88-35.97 258.88-33.15L258.88-33.15L258.88-33.15Q258.88-31.36 260.13-29.98L260.13-29.98L260.13-29.98Q261.38-28.61 263.30-27.33L263.30-27.33L263.30-27.33Q265.22-26.05 267.39-24.77L267.39-24.77L267.39-24.77Q269.57-23.49 271.49-21.95L271.49-21.95L271.49-21.95Q275.90-18.43 275.90-13.70L275.90-13.70L275.90-13.70Q275.90-10.50 274.21-7.78L274.21-7.78L274.21-7.78Q272.51-5.06 269.70-3.07L269.70-3.07L269.70-3.07Q263.55 1.28 255.42 1.28L255.42 1.28L255.42 1.28Q248.83 1.28 245.44-0.86L245.44-0.86L245.44-0.86Q242.05-3.01 242.05-6.27L242.05-6.27L242.05-6.27Q242.05-12.10 246.59-13.57L246.59-13.57L246.59-13.57Q247.87-14.02 249.82-14.02L249.82-14.02L249.82-14.02Q251.78-14.02 254.02-13.18L254.02-13.18L254.02-13.18Q252.99-10.56 252.99-8.19L252.99-8.19L252.99-8.19Q252.99-3.07 256.64-3.07L256.64-3.07L256.64-3.07Q259.01-3.07 260.96-4.80L260.96-4.80L260.96-4.80Q262.91-6.53 262.91-8.48L262.91-8.48L262.91-8.48Q262.91-10.43 261.66-11.84L261.66-11.84L261.66-11.84Q260.42-13.25 258.56-14.37L258.56-14.37L258.56-14.37Q256.70-15.49 254.56-16.58L254.56-16.58L254.56-16.58Q252.42-17.66 250.56-19.20L250.56-19.20L250.56-19.20Q246.21-22.72 246.21-28.35L246.21-28.35L246.21-28.35Q246.21-32 248-34.85L248-34.85L248-34.85Q249.79-37.70 252.67-39.62L252.67-39.62L252.67-39.62Q258.43-43.52 265.50-43.52L265.50-43.52L265.50-43.52Q272.58-43.52 276-41.41L276-41.41L276-41.41Q279.42-39.30 279.42-35.71L279.42-35.71L279.42-35.71Q279.42-32.58 276.99-30.59L276.99-30.59L276.99-30.59Q274.88-28.93 272.32-28.93L272.32-28.93L272.32-28.93Q269.76-28.93 267.97-29.57ZM281.79-6.40L281.79-6.40L281.79-6.40Q281.79-8.13 282.69-12.48L282.69-12.48L286.08-29.76L282.30-29.76L282.56-31.68L282.56-31.68Q290.24-33.98 297.66-39.62L297.66-39.62L300.74-39.62L299.20-32.64L304.19-32.64L303.62-29.76L298.69-29.76L295.42-12.48L295.42-12.48Q294.59-8.51 294.59-7.17L294.59-7.17L294.59-7.17Q294.59-4.10 297.28-3.46L297.28-3.46L297.28-3.46Q296.64-1.28 294.34 0L294.34 0L294.34 0Q292.03 1.28 288.77 1.28L288.77 1.28L288.77 1.28Q285.50 1.28 283.65-0.77L283.65-0.77L283.65-0.77Q281.79-2.82 281.79-6.40ZM324.42-2.69L324.42-2.69L324.42-2.69Q321.34 1.28 313.73 1.28L313.73 1.28L313.73 1.28Q309.76 1.28 306.88-1.12L306.88-1.12L306.88-1.12Q304-3.52 304-6.98L304-6.98L304-6.98Q304-8.90 304.19-9.86L304.19-9.86L308.48-32.64L321.47-33.92L316.80-9.22L316.80-9.22Q316.54-7.81 316.54-6.98L316.54-6.98L316.54-6.98Q316.54-3.26 318.78-3.26L318.78-3.26L318.78-3.26Q321.28-3.26 323.07-6.66L323.07-6.66L323.07-6.66Q323.65-7.74 323.90-9.15L323.90-9.15L328.45-32.64L341.06-33.92L336.32-8.96L336.32-8.96Q336.13-8 336.13-6.98L336.13-6.98L336.13-6.98Q336.13-5.95 336.70-4.83L336.70-4.83L336.70-4.83Q337.28-3.71 339.14-3.46L339.14-3.46L339.14-3.46Q338.75-1.92 337.41-0.90L337.41-0.90L337.41-0.90Q334.59 1.28 331.55 1.28L331.55 1.28L331.55 1.28Q328.51 1.28 326.72 0.19L326.72 0.19L326.72 0.19Q324.93-0.90 324.42-2.69ZM369.47-37.12L369.47-37.12L369.47-37.12Q370.37-38.66 370.37-40.32L370.37-40.32L370.37-40.32Q370.37-43.26 368.58-43.26L368.58-43.26L368.58-43.26Q365.82-43.26 364.67-37.63L364.67-37.63L363.71-32.64L369.54-32.64L369.15-29.76L363.14-29.76L357.38 0L344.45 1.28L350.59-29.76L346.05-29.76L346.62-32.64L351.10-32.64L352.45-37.70L352.45-37.70Q353.60-42.37 358.53-44.54L358.53-44.54L358.53-44.54Q362.11-46.08 368.13-46.08L368.13-46.08L368.13-46.08Q374.14-46.08 376.83-44.54L376.83-44.54L376.83-44.54Q379.52-43.01 379.52-40.96L379.52-40.96L379.52-40.96Q379.52-38.91 377.92-37.63L377.92-37.63L377.92-37.63Q376.32-36.35 374.53-36.35L374.53-36.35L374.53-36.35Q371.01-36.35 369.47-37.12ZM393.92-37.12L393.92-37.12L393.92-37.12Q394.82-38.66 394.82-40.32L394.82-40.32L394.82-40.32Q394.82-43.26 393.02-43.26L393.02-43.26L393.02-43.26Q390.27-43.26 389.12-37.63L389.12-37.63L388.16-32.64L393.98-32.64L393.60-29.76L387.58-29.76L381.82 0L368.90 1.28L375.04-29.76L370.50-29.76L371.07-32.64L375.55-32.64L376.90-37.70L376.90-37.70Q378.05-42.37 382.98-44.54L382.98-44.54L382.98-44.54Q386.56-46.08 392.58-46.08L392.58-46.08L392.58-46.08Q398.59-46.08 401.28-44.54L401.28-44.54L401.28-44.54Q403.97-43.01 403.97-40.96L403.97-40.96L403.97-40.96Q403.97-38.91 402.37-37.63L402.37-37.63L402.37-37.63Q400.77-36.35 398.98-36.35L398.98-36.35L398.98-36.35Q395.46-36.35 393.92-37.12Z" fill="#ccc"></path></g></g><style>text {
  font-size: 64px;
  font-family: Arial Black;
  dominant-baseline: central;
  text-anchor: middle;
}</style></svg>